<?xml version="1.0" encoding="utf-8"?>
<!-- Generator: Adobe Illustrator 26.0.1, SVG Export Plug-In . SVG Version: 6.00 Build 0)  -->
<svg version="1.1" id="Layer_1" xmlns="http://www.w3.org/2000/svg" xmlns:xlink="http://www.w3.org/1999/xlink" x="0px" y="0px"
	 viewBox="0 0 89.48 50.14" style="enable-background:new 0 0 89.48 50.14;" xml:space="preserve">
<style type="text/css">
	.st0{fill:#555654;}
	.st1{fill-rule:evenodd;clip-rule:evenodd;fill:#555654;}
	.st2{fill-rule:evenodd;clip-rule:evenodd;fill:url(#SVGID_1_);}
	.st3{fill-rule:evenodd;clip-rule:evenodd;fill:url(#SVGID_00000071539206317774822860000011704999911247913107_);}
	.st4{fill:#314891;}
</style>
<g>
	<g>
		<path class="st0" d="M51.25,13.12h-3.94l-0.69,1.6c-0.17,0.39-0.25,0.69-0.25,0.88c0,0.15,0.07,0.29,0.22,0.41
			c0.15,0.12,0.47,0.19,0.96,0.23v0.28h-3.2v-0.28c0.42-0.08,0.7-0.17,0.82-0.29c0.26-0.24,0.54-0.73,0.85-1.46l3.58-8.37h0.26
			l3.54,8.46c0.29,0.68,0.54,1.12,0.78,1.32c0.23,0.2,0.56,0.32,0.97,0.34v0.28h-4.01v-0.28c0.4-0.02,0.68-0.09,0.82-0.2
			c0.14-0.12,0.21-0.26,0.21-0.42c0-0.22-0.1-0.57-0.3-1.04L51.25,13.12z M51.04,12.57l-1.73-4.11l-1.77,4.11H51.04z"/>
		<path class="st0" d="M59.9,10.89l3.75,3.73c0.62,0.62,1.14,1.03,1.58,1.26c0.43,0.22,0.87,0.35,1.3,0.38v0.28h-4.83v-0.28
			c0.29,0,0.5-0.05,0.63-0.15c0.13-0.1,0.19-0.21,0.19-0.33c0-0.12-0.02-0.23-0.07-0.32c-0.05-0.09-0.2-0.27-0.47-0.53l-3.51-3.47
			v3.28c0,0.51,0.03,0.85,0.1,1.02c0.05,0.12,0.15,0.23,0.31,0.32c0.22,0.12,0.44,0.18,0.68,0.18h0.35v0.28h-4.33v-0.28h0.36
			c0.42,0,0.73-0.12,0.92-0.37c0.12-0.16,0.18-0.54,0.18-1.15V8.16c0-0.51-0.03-0.86-0.1-1.03c-0.05-0.12-0.15-0.22-0.31-0.31
			c-0.22-0.12-0.45-0.18-0.69-0.18h-0.36V6.36h4.33v0.28h-0.35c-0.24,0-0.46,0.06-0.68,0.17c-0.15,0.08-0.26,0.2-0.32,0.36
			c-0.06,0.16-0.09,0.49-0.09,0.99v3.11c0.1-0.09,0.44-0.41,1.03-0.95c1.48-1.36,2.38-2.27,2.69-2.72c0.14-0.2,0.2-0.38,0.2-0.52
			c0-0.11-0.05-0.22-0.16-0.3c-0.11-0.09-0.28-0.13-0.53-0.13h-0.23V6.36h3.73v0.28c-0.22,0-0.42,0.04-0.6,0.09
			c-0.18,0.05-0.4,0.16-0.66,0.32c-0.26,0.16-0.58,0.41-0.96,0.76c-0.11,0.1-0.62,0.61-1.52,1.54L59.9,10.89z"/>
		<path class="st0" d="M73.44,6.13v3.52h-0.28c-0.09-0.67-0.25-1.21-0.48-1.61c-0.23-0.4-0.56-0.72-0.99-0.95
			c-0.43-0.23-0.88-0.35-1.33-0.35c-0.52,0-0.95,0.16-1.29,0.48c-0.34,0.32-0.51,0.68-0.51,1.08c0,0.31,0.11,0.59,0.32,0.85
			c0.31,0.37,1.05,0.87,2.21,1.5c0.95,0.51,1.6,0.9,1.95,1.17c0.35,0.27,0.61,0.59,0.8,0.96c0.19,0.37,0.28,0.76,0.28,1.16
			c0,0.77-0.3,1.43-0.89,1.99c-0.6,0.56-1.37,0.84-2.31,0.84c-0.3,0-0.57-0.02-0.83-0.07c-0.16-0.03-0.48-0.12-0.96-0.27
			c-0.49-0.16-0.8-0.24-0.93-0.24c-0.13,0-0.22,0.04-0.3,0.11c-0.07,0.07-0.13,0.23-0.16,0.46h-0.28v-3.49h0.28
			c0.13,0.73,0.3,1.28,0.52,1.64c0.22,0.36,0.56,0.66,1.01,0.9c0.45,0.24,0.95,0.36,1.49,0.36c0.62,0,1.12-0.16,1.48-0.49
			c0.36-0.33,0.54-0.72,0.54-1.17c0-0.25-0.07-0.5-0.21-0.76c-0.14-0.26-0.35-0.49-0.64-0.71c-0.19-0.15-0.73-0.47-1.6-0.96
			c-0.87-0.49-1.49-0.88-1.86-1.17c-0.37-0.29-0.65-0.61-0.84-0.96c-0.19-0.35-0.29-0.73-0.29-1.15c0-0.73,0.28-1.36,0.84-1.89
			c0.56-0.53,1.27-0.79,2.14-0.79c0.54,0,1.11,0.13,1.72,0.4c0.28,0.12,0.48,0.19,0.59,0.19c0.13,0,0.24-0.04,0.32-0.12
			c0.08-0.08,0.15-0.23,0.2-0.47H73.44z"/>
		<path class="st0" d="M81.97,13.12h-3.94l-0.69,1.6c-0.17,0.39-0.25,0.69-0.25,0.88c0,0.15,0.07,0.29,0.22,0.41
			c0.15,0.12,0.47,0.19,0.96,0.23v0.28h-3.2v-0.28c0.42-0.08,0.7-0.17,0.83-0.29c0.25-0.24,0.54-0.73,0.85-1.46l3.58-8.37h0.26
			l3.54,8.46c0.28,0.68,0.54,1.12,0.78,1.32c0.23,0.2,0.56,0.32,0.97,0.34v0.28h-4.01v-0.28c0.41-0.02,0.68-0.09,0.82-0.2
			c0.14-0.12,0.21-0.26,0.21-0.42c0-0.22-0.1-0.57-0.3-1.04L81.97,13.12z M81.76,12.57l-1.72-4.11l-1.77,4.11H81.76z"/>
	</g>
	<path class="st1" d="M41.25,13.91c0.45-2.17,0.18-4.18-0.86-5.9c-4.1-6.64-11.38-5.67-18.57-1.79v1.71
		c7.13-3.94,14.22-4.99,17.6,1.91c0.61,1.23,1.16,2.8,1.18,4.2c0.18-0.06,0.36-0.11,0.57-0.13C41.19,13.91,41.22,13.91,41.25,13.91
		L41.25,13.91z M43.16,9.46v0.69c-0.02,0.6-0.08,1.2-0.21,1.81c-0.03,0-0.06,0-0.1,0.02c-0.23,0.02-0.44,0.06-0.63,0.13
		c0-1.55-0.62-3.26-1.28-4.61C37.26,0,29.59,1.03,21.83,5.26V3.39C29.65-0.78,37.54-1.75,42,5.49C42.72,6.68,43.11,8.03,43.16,9.46
		L43.16,9.46z M21.83,24.01V23.3c3.33-2.23,7-3.28,8.94-0.15c0.42,0.68,0.52,1.5,0.34,2.38c-0.02,0-0.02,0-0.03,0
		c-0.08,0-0.16,0.02-0.23,0.05c0-0.57-0.23-1.2-0.47-1.7C28.78,20.63,25.14,21.74,21.83,24.01L21.83,24.01z M21.83,21.31
		c3.96-2.54,8.16-3.62,10.05,0.24c0.31,0.61,0.58,1.39,0.6,2.1c0.08-0.03,0.18-0.05,0.27-0.06c0.02,0,0.03,0,0.05,0
		c0.23-1.08,0.08-2.1-0.44-2.96c-2.29-3.72-6.56-2.71-10.53-0.21V21.31L21.83,21.31z M21.83,18.61v-1.03
		c4.62-2.78,9.5-3.78,12.14,0.53c0.63,1.02,0.79,2.25,0.52,3.54c-0.02,0-0.03,0-0.05,0c-0.11,0.02-0.23,0.05-0.34,0.08
		c0-0.86-0.34-1.79-0.69-2.52C31.2,14.73,26.44,15.8,21.83,18.61L21.83,18.61z M21.83,15.94v-1.21c5.27-3.07,10.74-4.04,13.75,0.84
		c0.73,1.2,0.9,2.62,0.6,4.14c-0.02,0-0.03,0.02-0.06,0.02c-0.13,0-0.27,0.03-0.39,0.08c0-0.99-0.4-2.08-0.82-2.94
		C32.42,11.79,27.07,12.84,21.83,15.94L21.83,15.94z M21.83,13.26v-1.37c5.91-3.33,11.97-4.31,15.35,1.16
		c0.84,1.37,1.05,2.99,0.69,4.73c-0.03,0-0.05,0-0.08,0c-0.15,0.02-0.31,0.05-0.45,0.1c0-1.13-0.45-2.38-0.94-3.36
		C33.63,8.83,27.7,9.88,21.83,13.26L21.83,13.26z M21.83,10.6V9.04c6.54-3.6,13.22-4.57,16.95,1.49c0.95,1.53,1.18,3.36,0.78,5.32
		c-0.02,0-0.05,0-0.08,0c-0.18,0.02-0.34,0.05-0.5,0.11c0-1.28-0.52-2.67-1.05-3.78C34.84,5.89,28.33,6.93,21.83,10.6z M21.83,6.22
		C13.4,10.79,5.09,19.35,2.2,24.38c0.08,0.53,0.15,1.07,0.23,1.6c2.36-4.49,10.91-13.33,19.41-18.05V6.22L21.83,6.22z M21.83,3.39
		v1.87c-9.42,5.15-18.95,15-21.57,19.97L0,23.49C3.2,17.91,12.47,8.37,21.83,3.39L21.83,3.39z M21.83,9.04v1.55
		C14.25,14.88,6.71,22.71,4.59,26.71c-0.06-0.47-0.13-0.95-0.19-1.42C6.96,20.79,14.32,13.2,21.83,9.04L21.83,9.04z M21.83,11.89
		v1.37C15.19,17.09,8.61,23.94,6.77,27.45c-0.06-0.42-0.13-0.86-0.19-1.28C8.84,22.24,15.24,15.6,21.83,11.89L21.83,11.89z
		 M21.83,14.73v1.21c-5.72,3.38-11.3,9.23-12.89,12.23c-0.05-0.37-0.11-0.74-0.16-1.11C10.71,23.68,16.16,18.01,21.83,14.73
		L21.83,14.73z M21.83,17.58v1.03c-4.78,2.94-9.39,7.77-10.73,10.31c-0.03-0.32-0.08-0.65-0.13-0.95
		C12.6,25.12,17.1,20.42,21.83,17.58L21.83,17.58z M21.83,20.42v0.89c-3.85,2.46-7.48,6.3-8.55,8.35c-0.05-0.27-0.08-0.55-0.11-0.81
		C14.48,26.56,18.02,22.81,21.83,20.42L21.83,20.42z M21.83,23.3v0.71c-2.91,1.99-5.56,4.83-6.38,6.38l-0.1-0.65
		C16.35,28.01,18.95,25.22,21.83,23.3z"/>
	<linearGradient id="SVGID_1_" gradientUnits="userSpaceOnUse" x1="15.9449" y1="10.8027" x2="29.1182" y2="20.3736">
		<stop  offset="0" style="stop-color:#10795C"/>
		<stop  offset="1" style="stop-color:#E5E6E6"/>
	</linearGradient>
	<path class="st2" d="M41.33,13.76c0.45-2.16,0.18-4.18-0.86-5.9c-4.1-6.64-11.38-5.67-18.57-1.79v1.71
		c7.13-3.94,14.22-4.99,17.6,1.91c0.61,1.23,1.16,2.8,1.18,4.2c0.18-0.06,0.35-0.11,0.57-0.13C41.26,13.76,41.3,13.76,41.33,13.76
		L41.33,13.76z M43.23,9.31v0.69c-0.02,0.6-0.08,1.2-0.21,1.81c-0.03,0-0.06,0-0.1,0.02c-0.23,0.02-0.44,0.06-0.63,0.13
		c0-1.55-0.61-3.26-1.28-4.6c-3.69-7.51-11.36-6.48-19.12-2.25V3.24c7.82-4.17,15.71-5.14,20.17,2.1
		C42.8,6.53,43.19,7.88,43.23,9.31L43.23,9.31z M21.91,23.86v-0.71c3.33-2.23,7-3.28,8.94-0.15c0.42,0.68,0.52,1.5,0.34,2.38
		c-0.02,0-0.02,0-0.03,0c-0.08,0-0.16,0.02-0.23,0.05c0-0.57-0.23-1.2-0.47-1.7C28.85,20.48,25.22,21.59,21.91,23.86L21.91,23.86z
		 M21.91,21.16c3.96-2.54,8.16-3.62,10.05,0.24c0.31,0.61,0.58,1.39,0.6,2.1c0.08-0.03,0.18-0.05,0.28-0.06c0.02,0,0.03,0,0.05,0
		c0.23-1.08,0.08-2.1-0.44-2.96c-2.29-3.72-6.56-2.71-10.54-0.21V21.16L21.91,21.16z M21.91,18.46v-1.03
		c4.62-2.78,9.5-3.78,12.14,0.53c0.63,1.02,0.79,2.25,0.52,3.54c-0.02,0-0.03,0-0.05,0c-0.11,0.02-0.23,0.05-0.34,0.08
		c0-0.86-0.34-1.79-0.69-2.52C31.28,14.58,26.51,15.65,21.91,18.46L21.91,18.46z M21.91,15.79v-1.21
		c5.27-3.07,10.75-4.04,13.75,0.84c0.73,1.2,0.9,2.62,0.6,4.14c-0.02,0-0.03,0.02-0.06,0.02c-0.13,0-0.27,0.03-0.39,0.08
		c0-0.99-0.4-2.08-0.82-2.94C32.49,11.64,27.14,12.69,21.91,15.79L21.91,15.79z M21.91,13.11v-1.37c5.91-3.33,11.97-4.31,15.35,1.16
		c0.84,1.37,1.05,2.99,0.7,4.73c-0.03,0-0.05,0-0.08,0c-0.15,0.02-0.31,0.05-0.45,0.1c0-1.13-0.45-2.38-0.94-3.36
		C33.7,8.68,27.77,9.73,21.91,13.11L21.91,13.11z M21.91,10.44V8.89c6.54-3.6,13.22-4.57,16.95,1.49c0.95,1.53,1.18,3.36,0.78,5.32
		c-0.02,0-0.05,0-0.08,0c-0.18,0.02-0.34,0.05-0.5,0.11c0-1.28-0.52-2.67-1.05-3.78C34.91,5.74,28.4,6.78,21.91,10.44z M21.91,6.07
		C13.47,10.64,5.17,19.2,2.27,24.23c0.08,0.53,0.15,1.07,0.23,1.6C4.86,21.33,13.41,12.5,21.91,7.78V6.07L21.91,6.07z M21.91,3.24
		v1.87C12.49,10.27,2.95,20.11,0.33,25.08l-0.26-1.74C3.27,17.76,12.55,8.21,21.91,3.24L21.91,3.24z M21.91,8.89v1.55
		C14.33,14.73,6.78,22.56,4.66,26.55c-0.07-0.47-0.13-0.95-0.19-1.42C7.04,20.64,14.39,13.05,21.91,8.89L21.91,8.89z M21.91,11.74
		v1.37C15.26,16.94,8.69,23.79,6.85,27.3c-0.06-0.42-0.13-0.86-0.19-1.28C8.91,22.09,15.31,15.45,21.91,11.74L21.91,11.74z
		 M21.91,14.58v1.21c-5.72,3.38-11.29,9.23-12.89,12.23c-0.05-0.37-0.11-0.74-0.16-1.11C10.79,23.53,16.23,17.86,21.91,14.58
		L21.91,14.58z M21.91,17.43v1.03c-4.78,2.94-9.39,7.77-10.73,10.31c-0.03-0.32-0.08-0.65-0.13-0.95
		C12.68,24.97,17.17,20.27,21.91,17.43L21.91,17.43z M21.91,20.27v0.89c-3.85,2.46-7.48,6.3-8.55,8.35
		c-0.05-0.27-0.08-0.55-0.11-0.81C14.55,26.41,18.09,22.66,21.91,20.27L21.91,20.27z M21.91,23.15v0.71
		c-2.91,1.99-5.56,4.83-6.38,6.38l-0.1-0.65C16.43,27.86,19.03,25.07,21.91,23.15z"/>
	<path class="st1" d="M18.2,36.38c-0.45,2.17-0.18,4.18,0.86,5.9c4.1,6.64,11.38,5.67,18.57,1.79v-1.71
		c-7.12,3.94-14.22,4.99-17.6-1.91c-0.61-1.23-1.16-2.8-1.18-4.2c-0.18,0.07-0.36,0.11-0.57,0.13
		C18.27,36.38,18.23,36.38,18.2,36.38L18.2,36.38z M16.29,40.82v-0.7c0.02-0.6,0.08-1.2,0.21-1.81c0.03,0,0.06,0,0.1-0.02
		c0.23-0.02,0.44-0.06,0.63-0.13c0,1.55,0.61,3.26,1.28,4.61c3.68,7.51,11.36,6.48,19.12,2.25v1.87c-7.82,4.17-15.71,5.14-20.17-2.1
		C16.73,43.6,16.34,42.26,16.29,40.82L16.29,40.82z M37.62,26.28v0.71c-3.33,2.23-7,3.28-8.94,0.14c-0.42-0.68-0.52-1.5-0.34-2.37
		c0.02,0,0.02,0,0.03,0c0.08,0,0.16-0.02,0.23-0.05c0,0.57,0.23,1.2,0.47,1.7C30.68,29.66,34.31,28.54,37.62,26.28L37.62,26.28z
		 M37.62,28.98c-3.96,2.54-8.16,3.62-10.05-0.24c-0.31-0.61-0.58-1.39-0.6-2.1c-0.08,0.03-0.18,0.05-0.27,0.07
		c-0.02,0-0.03,0-0.05,0c-0.23,1.08-0.08,2.1,0.44,2.96c2.29,3.72,6.56,2.72,10.53,0.21V28.98L37.62,28.98z M37.62,31.68v1.03
		c-4.62,2.78-9.5,3.78-12.14-0.53c-0.63-1.02-0.79-2.25-0.52-3.54c0.02,0,0.03,0,0.05,0c0.11-0.02,0.23-0.05,0.34-0.08
		c0,0.86,0.34,1.79,0.7,2.52C28.25,35.55,33.02,34.49,37.62,31.68L37.62,31.68z M37.62,34.34v1.21c-5.27,3.07-10.74,4.04-13.75-0.84
		c-0.73-1.2-0.9-2.62-0.6-4.14c0.02,0,0.03-0.02,0.06-0.02c0.13,0,0.28-0.03,0.39-0.08c0,0.99,0.41,2.08,0.82,2.94
		C27.04,38.49,32.39,37.44,37.62,34.34L37.62,34.34z M37.62,37.02v1.37c-5.91,3.33-11.97,4.31-15.35-1.16
		c-0.84-1.37-1.05-2.99-0.69-4.74c0.03,0,0.05,0,0.08,0c0.14-0.02,0.31-0.05,0.45-0.1c0,1.13,0.45,2.37,0.94,3.36
		C25.83,41.45,31.76,40.4,37.62,37.02L37.62,37.02z M37.62,39.69v1.55c-6.54,3.6-13.22,4.57-16.95-1.49
		c-0.95-1.54-1.18-3.36-0.78-5.32c0.02,0,0.05,0,0.08,0c0.18-0.02,0.34-0.05,0.5-0.11c0,1.28,0.52,2.67,1.05,3.78
		C24.62,44.39,31.13,43.36,37.62,39.69z M37.62,44.07c8.44-4.57,16.74-13.14,19.63-18.16c-0.08-0.53-0.14-1.07-0.23-1.6
		c-2.36,4.49-10.91,13.33-19.41,18.05V44.07L37.62,44.07z M37.62,46.9v-1.87c9.42-5.15,18.95-14.99,21.57-19.97l0.26,1.75
		C56.26,32.37,46.98,41.92,37.62,46.9L37.62,46.9z M37.62,41.24v-1.55c7.58-4.28,15.12-12.12,17.24-16.11
		c0.06,0.47,0.13,0.95,0.19,1.42C52.49,29.49,45.14,37.09,37.62,41.24L37.62,41.24z M37.62,38.4v-1.37
		c6.64-3.83,13.22-10.68,15.06-14.19c0.06,0.42,0.13,0.86,0.19,1.28C50.62,28.04,44.22,34.68,37.62,38.4L37.62,38.4z M37.62,35.55
		v-1.21c5.72-3.38,11.3-9.23,12.89-12.23c0.05,0.37,0.11,0.74,0.16,1.12C48.74,26.6,43.3,32.27,37.62,35.55L37.62,35.55z
		 M37.62,32.71v-1.03c4.78-2.94,9.39-7.77,10.73-10.31c0.03,0.32,0.08,0.65,0.13,0.95C46.85,25.16,42.36,29.87,37.62,32.71
		L37.62,32.71z M37.62,29.87v-0.89c3.85-2.45,7.48-6.3,8.55-8.35c0.05,0.28,0.08,0.55,0.11,0.81
		C44.98,23.73,41.44,27.47,37.62,29.87L37.62,29.87z M37.62,26.99v-0.71c2.91-1.99,5.56-4.83,6.38-6.38l0.1,0.65
		C43.1,22.27,40.5,25.07,37.62,26.99z"/>
	
		<linearGradient id="SVGID_00000151545449700970639020000009829646273339344049_" gradientUnits="userSpaceOnUse" x1="-7104.5391" y1="-7820.6187" x2="-7091.3652" y2="-7811.0474" gradientTransform="matrix(-1 0 0 -1 -7060.9531 -7781.4375)">
		<stop  offset="0" style="stop-color:#2B3E85"/>
		<stop  offset="1" style="stop-color:#E5E6E6"/>
	</linearGradient>
	<path style="fill-rule:evenodd;clip-rule:evenodd;fill:url(#SVGID_00000151545449700970639020000009829646273339344049_);" d="
		M18.2,36.23c-0.45,2.17-0.18,4.18,0.86,5.9c4.1,6.64,11.38,5.67,18.57,1.79v-1.71c-7.12,3.94-14.22,4.99-17.6-1.91
		c-0.61-1.23-1.16-2.8-1.18-4.2c-0.18,0.07-0.36,0.11-0.57,0.13C18.27,36.23,18.23,36.23,18.2,36.23L18.2,36.23z M16.29,40.67v-0.7
		c0.02-0.6,0.08-1.2,0.21-1.81c0.03,0,0.06,0,0.1-0.02c0.23-0.02,0.44-0.06,0.63-0.13c0,1.55,0.61,3.26,1.28,4.61
		c3.68,7.51,11.36,6.48,19.12,2.25v1.87c-7.82,4.17-15.71,5.14-20.17-2.1C16.73,43.45,16.34,42.11,16.29,40.67L16.29,40.67z
		 M37.62,26.13v0.71c-3.33,2.23-7,3.28-8.94,0.15c-0.42-0.68-0.52-1.5-0.34-2.38c0.02,0,0.02,0,0.03,0c0.08,0,0.16-0.02,0.23-0.05
		c0,0.57,0.23,1.2,0.47,1.7C30.68,29.51,34.31,28.39,37.62,26.13L37.62,26.13z M37.62,28.83c-3.96,2.54-8.16,3.62-10.05-0.24
		c-0.31-0.61-0.58-1.39-0.6-2.1c-0.08,0.03-0.18,0.05-0.27,0.07c-0.02,0-0.03,0-0.05,0c-0.23,1.08-0.08,2.1,0.44,2.96
		c2.29,3.72,6.56,2.72,10.53,0.21V28.83L37.62,28.83z M37.62,31.52v1.04c-4.62,2.78-9.5,3.78-12.14-0.53
		c-0.63-1.02-0.79-2.25-0.52-3.54c0.02,0,0.03,0,0.05,0c0.11-0.02,0.23-0.05,0.34-0.08c0,0.86,0.34,1.79,0.7,2.52
		C28.25,35.4,33.02,34.34,37.62,31.52L37.62,31.52z M37.62,34.19v1.21c-5.27,3.07-10.74,4.04-13.75-0.84
		c-0.73-1.2-0.9-2.62-0.6-4.14c0.02,0,0.03-0.02,0.06-0.02c0.13,0,0.28-0.03,0.39-0.08c0,0.99,0.41,2.08,0.82,2.94
		C27.04,38.34,32.39,37.29,37.62,34.19L37.62,34.19z M37.62,36.87v1.37c-5.91,3.33-11.97,4.31-15.35-1.16
		c-0.84-1.37-1.05-2.99-0.69-4.73c0.03,0,0.05,0,0.08,0c0.14-0.02,0.31-0.05,0.45-0.1c0,1.13,0.45,2.37,0.94,3.36
		C25.83,41.3,31.76,40.25,37.62,36.87L37.62,36.87z M37.62,39.54v1.55c-6.54,3.6-13.22,4.57-16.95-1.49
		c-0.95-1.53-1.18-3.36-0.78-5.32c0.02,0,0.05,0,0.08,0c0.18-0.02,0.34-0.05,0.5-0.11c0,1.28,0.52,2.67,1.05,3.78
		C24.62,44.24,31.13,43.21,37.62,39.54z M37.62,43.92c8.44-4.57,16.74-13.14,19.63-18.16c-0.08-0.53-0.14-1.07-0.23-1.6
		c-2.36,4.49-10.91,13.33-19.41,18.05V43.92L37.62,43.92z M37.62,46.75v-1.87c9.42-5.15,18.95-14.99,21.57-19.97l0.26,1.75
		C56.26,32.22,46.98,41.77,37.62,46.75L37.62,46.75z M37.62,41.09v-1.55c7.58-4.28,15.12-12.12,17.24-16.11
		c0.06,0.47,0.13,0.95,0.19,1.42C52.49,29.34,45.14,36.94,37.62,41.09L37.62,41.09z M37.62,38.25v-1.37
		c6.64-3.83,13.22-10.68,15.06-14.19c0.06,0.42,0.13,0.86,0.19,1.28C50.62,27.89,44.22,34.53,37.62,38.25L37.62,38.25z M37.62,35.4
		v-1.21c5.72-3.38,11.3-9.23,12.89-12.23c0.05,0.37,0.11,0.74,0.16,1.11C48.74,26.45,43.3,32.12,37.62,35.4L37.62,35.4z
		 M37.62,32.56v-1.04c4.78-2.94,9.39-7.77,10.73-10.31c0.03,0.32,0.08,0.65,0.13,0.95C46.85,25.01,42.36,29.72,37.62,32.56
		L37.62,32.56z M37.62,29.72v-0.89c3.85-2.46,7.48-6.3,8.55-8.35c0.05,0.27,0.08,0.55,0.11,0.81
		C44.98,23.58,41.44,27.32,37.62,29.72L37.62,29.72z M37.62,26.84v-0.71c2.91-1.99,5.56-4.83,6.38-6.38l0.1,0.65
		C43.1,22.12,40.5,24.92,37.62,26.84z"/>
	<g>
		<path class="st4" d="M50.96,13.12h-3.94l-0.69,1.6c-0.17,0.39-0.25,0.69-0.25,0.88c0,0.15,0.07,0.29,0.22,0.41
			c0.15,0.12,0.47,0.19,0.96,0.23v0.28h-3.2v-0.28c0.42-0.08,0.7-0.17,0.82-0.29c0.26-0.24,0.54-0.73,0.85-1.46l3.58-8.37h0.26
			l3.54,8.46c0.28,0.68,0.54,1.12,0.78,1.32c0.23,0.2,0.56,0.32,0.97,0.34v0.28h-4.01v-0.28c0.4-0.02,0.68-0.09,0.82-0.2
			c0.14-0.12,0.21-0.26,0.21-0.42c0-0.22-0.1-0.57-0.3-1.04L50.96,13.12z M50.75,12.57l-1.73-4.11l-1.77,4.11H50.75z"/>
		<path class="st4" d="M59.61,10.89l3.75,3.73c0.62,0.62,1.14,1.03,1.57,1.26c0.44,0.22,0.87,0.35,1.31,0.38v0.28H61.4v-0.28
			c0.29,0,0.5-0.05,0.63-0.15c0.13-0.1,0.19-0.21,0.19-0.33c0-0.12-0.02-0.23-0.07-0.32c-0.05-0.09-0.2-0.27-0.47-0.53l-3.51-3.47
			v3.28c0,0.51,0.03,0.85,0.1,1.02c0.05,0.12,0.16,0.23,0.32,0.32c0.21,0.12,0.44,0.18,0.68,0.18h0.35v0.28h-4.33v-0.28h0.36
			c0.42,0,0.72-0.12,0.92-0.37c0.12-0.16,0.18-0.54,0.18-1.15V8.16c0-0.51-0.03-0.86-0.1-1.03c-0.05-0.12-0.15-0.22-0.31-0.31
			c-0.22-0.12-0.45-0.18-0.69-0.18h-0.36V6.36h4.33v0.28h-0.35c-0.23,0-0.46,0.06-0.68,0.17c-0.16,0.08-0.26,0.2-0.32,0.36
			c-0.06,0.16-0.09,0.49-0.09,0.99v3.11c0.1-0.09,0.44-0.41,1.03-0.95c1.48-1.36,2.38-2.27,2.69-2.72c0.13-0.2,0.2-0.38,0.2-0.52
			c0-0.11-0.05-0.22-0.16-0.3c-0.1-0.09-0.28-0.13-0.53-0.13h-0.23V6.36h3.73v0.28c-0.22,0-0.42,0.04-0.6,0.09
			c-0.18,0.05-0.4,0.16-0.66,0.32c-0.26,0.16-0.58,0.41-0.96,0.76c-0.11,0.1-0.62,0.61-1.52,1.54L59.61,10.89z"/>
		<path class="st4" d="M73.15,6.13v3.52h-0.28c-0.09-0.67-0.25-1.21-0.48-1.61c-0.23-0.4-0.56-0.72-0.99-0.95
			c-0.43-0.23-0.88-0.35-1.33-0.35c-0.52,0-0.95,0.16-1.29,0.48c-0.34,0.32-0.51,0.68-0.51,1.08c0,0.31,0.11,0.59,0.32,0.85
			c0.31,0.37,1.05,0.87,2.21,1.5c0.95,0.51,1.6,0.9,1.95,1.17c0.35,0.27,0.61,0.59,0.8,0.96c0.19,0.37,0.28,0.76,0.28,1.16
			c0,0.77-0.3,1.43-0.89,1.99c-0.6,0.56-1.37,0.84-2.31,0.84c-0.3,0-0.57-0.02-0.83-0.07c-0.16-0.03-0.48-0.12-0.96-0.27
			c-0.49-0.16-0.8-0.24-0.93-0.24c-0.13,0-0.22,0.04-0.3,0.11c-0.07,0.07-0.13,0.23-0.16,0.46h-0.28v-3.49h0.28
			c0.13,0.73,0.3,1.28,0.52,1.64c0.22,0.36,0.56,0.66,1.01,0.9c0.45,0.24,0.95,0.36,1.49,0.36c0.62,0,1.12-0.16,1.48-0.49
			c0.36-0.33,0.54-0.72,0.54-1.17c0-0.25-0.07-0.5-0.21-0.76c-0.14-0.26-0.35-0.49-0.64-0.71c-0.19-0.15-0.73-0.47-1.6-0.96
			c-0.87-0.49-1.49-0.88-1.86-1.17c-0.37-0.29-0.65-0.61-0.84-0.96c-0.19-0.35-0.29-0.73-0.29-1.15c0-0.73,0.28-1.36,0.84-1.89
			c0.56-0.53,1.27-0.79,2.14-0.79c0.54,0,1.11,0.13,1.72,0.4c0.28,0.12,0.48,0.19,0.59,0.19c0.13,0,0.24-0.04,0.32-0.12
			c0.08-0.08,0.15-0.23,0.2-0.47H73.15z"/>
		<path class="st4" d="M81.67,13.12h-3.94l-0.69,1.6c-0.17,0.39-0.25,0.69-0.25,0.88c0,0.15,0.07,0.29,0.22,0.41
			c0.15,0.12,0.47,0.19,0.96,0.23v0.28h-3.2v-0.28c0.42-0.08,0.7-0.17,0.83-0.29c0.25-0.24,0.54-0.73,0.85-1.46l3.58-8.37h0.26
			l3.54,8.46c0.28,0.68,0.54,1.12,0.78,1.32c0.23,0.2,0.56,0.32,0.97,0.34v0.28h-4.01v-0.28c0.41-0.02,0.68-0.09,0.82-0.2
			c0.14-0.12,0.21-0.26,0.21-0.42c0-0.22-0.1-0.57-0.3-1.04L81.67,13.12z M81.46,12.57l-1.72-4.11l-1.77,4.11H81.46z"/>
	</g>
	<g>
		<path class="st0" d="M85.72,6.5v0.7h-0.07c-0.04-0.16-0.09-0.28-0.15-0.35c-0.05-0.07-0.13-0.13-0.22-0.17
			c-0.05-0.02-0.14-0.03-0.27-0.03H84.8v2c0,0.13,0.01,0.22,0.02,0.25c0.02,0.03,0.05,0.06,0.09,0.09c0.05,0.03,0.11,0.04,0.19,0.04
			h0.09V9.1h-1.46V9.03h0.09c0.08,0,0.15-0.01,0.2-0.04c0.04-0.02,0.06-0.05,0.08-0.09c0.01-0.03,0.02-0.11,0.02-0.24v-2h-0.2
			c-0.19,0-0.32,0.04-0.41,0.11c-0.12,0.1-0.19,0.25-0.22,0.44h-0.08V6.5H85.72z"/>
		<path class="st0" d="M87.67,8.21L88.4,6.5h1.08v0.07h-0.09c-0.08,0-0.14,0.01-0.19,0.04c-0.03,0.02-0.06,0.05-0.08,0.09
			c-0.02,0.03-0.02,0.11-0.02,0.24v1.71c0,0.13,0.01,0.22,0.02,0.25c0.01,0.03,0.04,0.06,0.09,0.09c0.04,0.03,0.11,0.04,0.18,0.04
			h0.09V9.1h-1.39V9.03h0.09c0.08,0,0.14-0.01,0.19-0.04c0.03-0.02,0.06-0.05,0.08-0.09c0.01-0.03,0.02-0.11,0.02-0.24V6.73
			L87.44,9.1H87.4l-1.04-2.35v1.83c0,0.13,0,0.21,0.01,0.24c0.01,0.06,0.05,0.12,0.11,0.16c0.06,0.04,0.15,0.06,0.27,0.06V9.1h-0.91
			V9.03h0.03c0.06,0,0.11-0.01,0.16-0.03c0.05-0.02,0.09-0.05,0.12-0.08c0.02-0.03,0.04-0.08,0.06-0.14c0-0.01,0-0.08,0-0.19V6.94
			c0-0.13-0.01-0.21-0.02-0.25c-0.02-0.03-0.04-0.06-0.09-0.09C86.06,6.59,86,6.57,85.92,6.57h-0.08V6.5h1.09L87.67,8.21z"/>
	</g>
	<g>
		<path class="st4" d="M85.59,6.5v0.71h-0.07c-0.04-0.16-0.09-0.28-0.14-0.35c-0.05-0.07-0.12-0.13-0.21-0.17
			c-0.05-0.02-0.13-0.03-0.26-0.03h-0.19v2.02c0,0.13,0.01,0.22,0.02,0.25c0.02,0.03,0.04,0.06,0.09,0.09
			c0.04,0.03,0.1,0.04,0.18,0.04h0.09v0.07h-1.37V9.05h0.09c0.08,0,0.14-0.01,0.18-0.04c0.03-0.02,0.06-0.05,0.08-0.09
			c0.01-0.03,0.02-0.11,0.02-0.24V6.65h-0.19c-0.18,0-0.3,0.04-0.38,0.11c-0.11,0.1-0.18,0.25-0.21,0.45h-0.07V6.5H85.59z"/>
		<path class="st4" d="M87.62,8.23l0.71-1.72h1.06v0.07h-0.08c-0.08,0-0.14,0.01-0.19,0.04c-0.03,0.02-0.06,0.05-0.08,0.09
			c-0.02,0.03-0.02,0.11-0.02,0.24v1.72c0,0.13,0.01,0.22,0.02,0.25c0.01,0.03,0.04,0.06,0.09,0.09c0.04,0.03,0.1,0.04,0.18,0.04
			h0.08v0.07h-1.37V9.05h0.08c0.08,0,0.14-0.01,0.19-0.04c0.03-0.02,0.06-0.05,0.08-0.09c0.01-0.03,0.02-0.11,0.02-0.24V6.73
			l-1,2.39h-0.05l-1.02-2.37v1.84c0,0.13,0,0.21,0.01,0.24c0.02,0.06,0.05,0.12,0.11,0.16c0.06,0.04,0.14,0.06,0.26,0.06v0.07h-0.89
			V9.05h0.03c0.06,0,0.11-0.01,0.16-0.03c0.05-0.02,0.09-0.05,0.11-0.08c0.03-0.03,0.04-0.08,0.06-0.14c0-0.01,0-0.08,0-0.2V6.95
			c0-0.13-0.01-0.22-0.02-0.25c-0.02-0.03-0.04-0.06-0.09-0.09c-0.04-0.03-0.1-0.04-0.18-0.04h-0.08V6.5h1.07L87.62,8.23z"/>
	</g>
</g>
</svg>
